<?xml version="1.0" standalone="no"?>
<!DOCTYPE svg PUBLIC "-//W3C//DTD SVG 20010904//EN"
 "http://www.w3.org/TR/2001/REC-SVG-20010904/DTD/svg10.dtd">
<svg version="1.0" xmlns="http://www.w3.org/2000/svg"
 width="866.000000pt" height="1041.000000pt" viewBox="0 0 866.000000 1041.000000"
 preserveAspectRatio="xMidYMid meet">
<metadata>
Created by potrace 1.16, written by Peter Selinger 2001-2019
</metadata>
<g transform="translate(0.000000,1041.000000) scale(0.100000,-0.100000)"
fill="#000000" stroke="none">
<path d="M4222 9380 c34 -50 59 -103 55 -114 -3 -7 -23 -18 -46 -25 -23 -6
-41 -17 -42 -24 -1 -7 -1 -35 0 -64 l0 -52 -32 5 c-25 3 -28 2 -12 -5 17 -8
15 -10 -14 -10 -26 -1 -32 2 -27 14 4 12 -1 15 -22 14 -15 -1 -46 1 -68 5 -52
9 -69 37 -60 98 5 33 4 39 -5 25 -16 -27 -6 -157 13 -171 8 -6 18 -21 22 -33
4 -13 10 -22 14 -21 4 1 27 -8 52 -19 25 -11 60 -24 78 -28 34 -7 43 -31 15
-38 -15 -3 38 -2 70 2 5 1 7 9 5 19 -2 10 10 27 33 43 80 59 92 176 29 301
-18 37 -42 76 -54 85 -20 18 -20 18 -4 -7z"/>
<path d="M2600 9132 c0 -85 26 -139 108 -221 42 -42 104 -92 137 -111 48 -27
65 -43 84 -83 34 -70 123 -162 176 -183 25 -9 45 -20 45 -24 0 -4 19 -10 43
-14 23 -4 57 -11 75 -17 29 -9 31 -13 20 -27 -11 -14 -9 -14 12 1 13 9 37 17
52 17 15 0 30 5 33 10 4 6 11 7 17 4 6 -4 8 -2 4 4 -3 5 0 13 6 15 7 3 -2 3
-21 0 -32 -6 -33 -5 -22 16 14 26 56 28 107 4 36 -18 36 -18 58 8 12 14 30 28
39 32 9 3 17 14 17 22 0 9 5 13 10 10 6 -3 10 -2 10 4 0 5 -9 13 -21 16 -11 4
-50 34 -87 68 -37 34 -58 51 -47 37 11 -14 34 -38 50 -54 l30 -28 -30 18 c-64
38 -158 119 -212 183 -31 36 -60 67 -64 69 -16 6 -22 -28 -10 -56 16 -37 124
-147 202 -205 35 -26 73 -54 84 -63 13 -9 0 -7 -35 7 -30 11 -65 23 -77 26
-13 3 -23 9 -23 13 0 5 -24 16 -52 26 -29 9 -73 27 -98 39 -25 12 -59 26 -77
29 -18 4 -43 16 -57 27 -14 11 -49 31 -78 44 -196 91 -324 214 -372 358 -3 9
-12 17 -21 17 -11 0 -15 -11 -15 -38z"/>
<path d="M6490 8684 c-41 -47 -94 -98 -118 -115 -23 -17 -50 -38 -60 -47 -21
-22 -129 -88 -166 -102 -21 -7 -34 -6 -56 5 -42 22 -51 18 -13 -5 17 -10 36
-28 42 -38 17 -32 58 -33 90 -3 15 14 41 33 57 41 31 16 91 59 138 100 27 23
63 60 139 144 53 57 68 107 34 106 -7 -1 -46 -39 -87 -86z"/>
<path d="M2873 8667 c33 -18 64 -44 72 -61 8 -15 15 -29 15 -31 0 -1 -25 -8
-56 -15 -31 -8 -58 -18 -60 -24 -2 -6 -23 -12 -47 -13 -23 -2 -47 -9 -53 -18
-12 -17 -37 -19 -62 -7 -9 5 -28 6 -42 3 -18 -5 -3 -10 54 -19 44 -7 85 -17
92 -23 7 -5 35 -9 63 -8 28 2 54 -1 58 -6 5 -4 -1 -5 -12 -2 -20 7 -20 7 -1
-8 13 -10 23 -12 30 -5 5 5 40 10 77 10 61 0 67 -2 62 -19 -6 -23 37 -34 55
-14 8 8 9 13 2 14 -5 1 -16 2 -22 3 -7 1 -12 9 -12 19 1 9 -3 17 -10 17 -6 0
-19 19 -29 43 -27 66 -103 146 -164 173 -74 33 -78 30 -10 -9z"/>
<path d="M6667 8451 c-19 -21 -41 -57 -48 -79 -13 -46 -45 -64 -134 -78 -28
-4 -44 -9 -37 -12 10 -3 10 -7 1 -18 -7 -9 -32 -14 -70 -14 -33 0 -67 -4 -77
-10 -9 -5 -42 -19 -73 -30 -53 -19 -106 -61 -137 -108 -8 -12 -13 -25 -10 -28
3 -2 17 14 32 36 20 30 45 49 108 80 72 35 91 40 151 40 49 0 73 4 81 15 9 11
18 12 52 3 35 -10 47 -9 78 6 l37 18 54 -59 c29 -32 50 -62 45 -66 -4 -5 -42
-11 -84 -14 -42 -3 -76 -8 -76 -10 0 -2 4 -13 10 -23 9 -18 11 -18 62 2 37 14
58 17 72 10 20 -9 18 -13 -32 -62 -55 -53 -119 -89 -159 -90 -13 0 -23 -2 -23
-4 0 -11 29 -69 30 -59 0 7 7 10 15 7 9 -4 15 0 15 8 0 17 40 56 94 92 72 48
89 26 29 -37 -21 -22 -31 -36 -22 -31 25 13 61 61 109 142 41 68 45 72 79 72
69 1 124 31 232 125 26 22 73 54 105 70 33 17 61 33 62 38 2 4 12 7 23 7 10 0
19 7 19 15 0 10 -36 26 -112 50 -121 38 -148 42 -148 22 0 -31 -193 -65 -289
-52 -56 8 -65 24 -29 49 12 9 18 16 12 16 -6 0 -27 -17 -47 -39z m458 -52 c15
-15 -29 -69 -73 -89 -93 -44 -143 -54 -263 -55 -118 0 -149 9 -149 41 0 35
122 87 244 104 63 9 231 8 241 -1z"/>
<path d="M4315 8314 c-43 -4 -197 -23 -255 -30 -58 -8 -209 -44 -299 -71 -184
-55 -358 -129 -551 -234 -134 -73 -134 -79 0 -16 230 109 466 182 740 228 183
31 622 34 795 6 289 -48 482 -105 709 -208 302 -137 538 -299 780 -537 480
-473 758 -1103 791 -1797 6 -118 -5 -360 -21 -460 -4 -22 -4 -38 -1 -35 14 13
38 256 44 440 5 160 2 239 -11 360 -18 155 -56 366 -81 450 -8 25 -25 81 -39
125 -79 257 -215 528 -396 785 -106 150 -317 373 -455 479 -352 272 -714 428
-1140 492 -124 19 -505 33 -610 23z"/>
<path d="M4180 7648 c-1 -35 -53 -305 -61 -314 -10 -12 -81 -38 -201 -74 -24
-7 -43 3 -158 81 -71 49 -135 89 -142 89 -17 0 -428 -311 -428 -324 0 -6 27
-69 60 -140 33 -71 60 -137 60 -147 0 -14 -91 -151 -125 -187 -1 -1 -76 -7
-166 -13 -102 -6 -168 -14 -176 -22 -11 -11 -133 -471 -133 -501 0 -8 59 -56
130 -106 l130 -91 0 -132 0 -133 -115 -63 c-63 -34 -117 -66 -120 -71 -4 -7
33 -138 126 -442 l30 -98 159 0 159 0 66 -77 c36 -42 65 -83 65 -93 0 -9 -16
-80 -35 -159 -19 -78 -35 -146 -35 -150 0 -18 450 -303 468 -296 8 3 67 43
132 90 64 47 126 85 136 85 10 0 60 -11 109 -23 l90 -23 55 -162 55 -162 272
0 271 0 42 174 c47 199 28 176 177 211 l72 17 142 -91 c78 -50 147 -91 153
-91 12 0 54 36 270 223 75 65 136 124 136 130 0 7 -23 81 -51 165 l-51 152 64
78 64 77 165 5 164 5 77 255 c43 140 77 263 75 272 -1 11 -53 48 -132 95
l-130 78 -3 110 c-2 61 0 119 2 131 3 12 51 51 122 98 114 76 116 78 110 109
-4 18 -45 141 -93 275 l-86 242 -30 0 c-16 0 -80 -5 -141 -12 -69 -7 -118 -8
-128 -2 -25 15 -148 165 -148 181 0 8 23 82 51 164 29 82 50 151 48 153 -16
12 -467 286 -480 291 -10 4 -46 -22 -109 -81 -52 -47 -103 -89 -113 -93 -28
-11 -229 16 -238 31 -5 7 -18 56 -29 108 -12 52 -28 119 -36 148 l-15 52 -299
0 c-165 0 -300 -1 -300 -2z m546 -553 c304 -53 568 -203 785 -447 304 -342
395 -821 240 -1260 -61 -170 -207 -398 -324 -504 -186 -169 -422 -290 -652
-335 -105 -21 -388 -18 -493 4 -377 82 -673 292 -864 613 -207 349 -234 802
-71 1181 70 163 208 355 326 454 50 42 62 47 75 37 13 -11 14 -10 8 8 -5 17 5
28 66 66 152 96 305 156 459 182 115 19 336 20 445 1z"/>
<path d="M4634 6149 c7 -46 -12 -89 -40 -89 -12 0 -15 -6 -11 -21 3 -12 1 -30
-6 -40 -9 -15 -7 -22 16 -43 15 -14 27 -32 27 -40 0 -31 42 -126 55 -126 18 0
35 31 35 62 0 15 19 43 56 78 46 45 54 60 50 81 -4 23 -2 26 20 21 13 -2 24
-11 24 -18 0 -25 16 -15 34 22 23 49 7 68 -28 35 -14 -13 -31 -21 -39 -18 -8
3 -19 1 -24 -4 -17 -17 -83 10 -95 39 -13 31 -13 29 -3 60 5 18 2 22 -14 22
-11 0 -23 5 -26 10 -3 6 -13 10 -22 10 -13 0 -14 -8 -9 -41z"/>
<path d="M5915 4383 c-94 -103 -229 -217 -360 -304 -66 -43 -128 -85 -137 -93
-9 -8 -19 -12 -22 -8 -3 3 -6 -1 -6 -8 0 -7 -3 -11 -6 -8 -6 7 -197 -81 -202
-93 -2 -4 -10 -5 -19 -2 -12 5 -14 3 -8 -7 5 -8 4 -11 -2 -7 -12 7 -105 -21
-114 -35 -3 -5 -10 -8 -15 -7 -21 7 -84 -13 -93 -29 -6 -10 -11 -12 -11 -4 0
8 -8 10 -27 6 -16 -4 -30 -10 -33 -13 -3 -3 -25 -7 -50 -9 -25 -2 -46 -6 -48
-11 -1 -4 -14 -6 -28 -3 -17 3 -30 -2 -40 -14 -11 -14 -17 -15 -20 -6 -3 6
-17 12 -30 12 -14 0 -23 -4 -19 -9 3 -6 -17 -7 -50 -4 -37 4 -64 1 -80 -7 -18
-10 -47 -11 -117 -5 -51 5 -121 9 -155 9 -33 1 -59 4 -56 9 2 4 -15 8 -39 9
-64 3 -80 4 -113 13 -16 4 -75 18 -130 31 -104 26 -175 48 -283 91 -35 14 -65
23 -67 21 -10 -9 211 -100 287 -119 46 -11 92 -24 103 -29 32 -15 134 -38 210
-48 81 -10 526 -9 600 2 63 10 167 37 180 47 6 5 31 11 55 15 71 10 215 65
340 129 25 12 56 26 69 30 13 4 67 37 120 72 53 36 103 68 111 71 8 3 34 24
56 46 23 23 70 66 104 96 94 82 220 217 220 234 0 16 -20 -1 -75 -61z"/>
<path d="M2083 2095 c-42 -18 -53 -60 -52 -195 0 -163 26 -207 114 -195 22 3
55 5 73 5 l32 0 0 115 0 115 -50 0 c-49 0 -50 -1 -50 -30 0 -16 5 -30 10 -30
15 0 13 -97 -2 -102 -33 -13 -38 3 -38 128 0 117 1 124 20 124 16 0 20 -7 20
-30 0 -29 2 -30 45 -30 43 0 45 1 45 30 0 87 -81 133 -167 95z"/>
<path d="M3483 2096 c-23 -11 -35 -25 -44 -54 -15 -51 6 -97 67 -151 49 -43
67 -78 52 -105 -15 -26 -38 -1 -38 40 0 34 -1 34 -45 34 -45 0 -45 0 -45 -35
0 -87 50 -133 133 -122 61 8 87 42 87 114 0 57 0 57 -65 120 -68 66 -82 97
-42 91 16 -2 23 -11 25 -30 3 -25 7 -28 44 -28 l41 0 -6 46 c-3 27 -13 54 -25
66 -26 26 -97 33 -139 14z"/>
<path d="M4884 2096 c-48 -21 -56 -55 -52 -210 4 -160 12 -176 95 -183 98 -8
122 31 122 197 1 138 -10 177 -54 196 -42 17 -71 17 -111 0z"/>
<path d="M6033 2100 c-47 -20 -58 -54 -58 -190 0 -176 19 -210 116 -210 32 0
47 7 70 30 l30 30 -3 150 c-3 134 -5 152 -23 170 -23 23 -99 35 -132 20z"/>
<path d="M7325 2101 c-83 -36 -74 -138 19 -215 47 -38 65 -79 45 -102 -18 -21
-39 2 -39 42 0 34 -1 34 -45 34 -42 0 -45 -2 -45 -27 0 -94 45 -140 129 -130
63 7 91 41 91 108 0 64 -10 82 -79 146 -44 40 -53 54 -44 63 16 18 41 6 45
-22 2 -19 10 -24 41 -26 l37 -3 0 40 c0 57 -32 92 -90 97 -25 2 -54 0 -65 -5z"/>
<path d="M1540 1905 l0 -195 90 0 90 0 0 35 0 35 -51 0 -50 0 3 53 3 52 43 3
c41 3 42 4 42 38 0 34 0 34 -46 34 -45 0 -45 0 -42 33 3 31 5 32 51 35 46 3
47 4 47 38 l0 34 -90 0 -90 0 0 -195z"/>
<path d="M1760 1905 l0 -195 45 0 45 0 1 128 c1 124 1 126 16 92 10 -20 18
-74 21 -127 l4 -93 44 0 44 0 0 195 0 195 -45 0 -45 0 -1 -42 0 -43 -22 43
c-20 40 -23 42 -64 42 l-43 0 0 -195z"/>
<path d="M2310 1905 l0 -195 40 0 40 0 0 195 0 195 -40 0 -40 0 0 -195z"/>
<path d="M2450 1906 l0 -196 45 0 45 0 1 123 c1 119 1 121 16 87 9 -19 18 -74
21 -122 l5 -88 43 0 44 0 0 195 0 195 -45 0 -45 0 -1 -47 0 -48 -22 45 c-21
42 -25 45 -65 48 l-42 3 0 -195z"/>
<path d="M2720 1905 l0 -195 90 0 90 0 0 35 c0 35 0 35 -45 35 l-45 0 0 55 0
55 45 0 c45 0 45 0 45 35 0 35 0 35 -45 35 -45 0 -45 0 -45 35 0 35 0 35 45
35 45 0 45 0 45 35 l0 35 -90 0 -90 0 0 -195z"/>
<path d="M2950 1905 l0 -195 90 0 90 0 0 35 0 35 -51 0 -50 0 3 53 3 52 43 3
c41 3 42 4 42 38 0 34 0 34 -46 34 -45 0 -45 0 -42 33 3 31 5 32 51 35 46 3
47 4 47 38 l0 34 -90 0 -90 0 0 -195z"/>
<path d="M3170 1905 l0 -195 45 0 45 0 0 84 c0 47 4 87 9 91 13 7 19 -16 27
-102 l7 -73 43 0 c51 0 51 0 30 116 -11 60 -10 74 1 90 10 13 13 38 11 83 -6
88 -22 101 -134 101 l-84 0 0 -195z"/>
<path d="M3820 1988 c1 -119 10 -178 37 -240 15 -36 19 -38 60 -38 41 0 45 2
60 37 l15 38 15 -38 c15 -37 17 -38 62 -35 l46 3 22 65 c14 45 23 105 28 193
l7 127 -45 0 -45 0 -4 -142 c-6 -230 -35 -224 -45 9 l-6 133 -37 0 -37 0 -5
-138 c-4 -137 -17 -196 -32 -156 -4 11 -10 81 -13 157 l-6 137 -38 0 -39 0 0
-112z"/>
<path d="M4210 1905 l0 -195 40 0 40 0 0 195 0 195 -40 0 -40 0 0 -195z"/>
<path d="M4340 2065 c0 -31 3 -35 25 -35 l25 0 0 -160 0 -160 40 0 40 0 0 160
0 160 25 0 c22 0 25 4 25 35 l0 35 -90 0 -90 0 0 -35z"/>
<path d="M4560 1905 l0 -195 45 0 45 0 0 90 c0 83 1 90 20 90 19 0 20 -7 20
-90 l0 -90 45 0 45 0 0 195 0 195 -45 0 -45 0 0 -70 c0 -63 -2 -70 -20 -70
-18 0 -20 7 -20 70 l0 70 -45 0 -45 0 0 -195z"/>
<path d="M5102 1925 c3 -162 5 -176 24 -196 26 -25 94 -36 133 -20 46 20 54
50 59 229 l4 162 -46 0 -46 0 0 -159 c0 -161 -5 -186 -35 -161 -12 10 -15 44
-15 166 l0 154 -41 0 -40 0 3 -175z"/>
<path d="M5350 2065 c0 -31 3 -35 25 -35 l25 0 0 -160 0 -160 45 0 45 0 0 160
0 160 25 0 c22 0 25 4 25 35 l0 35 -95 0 -95 0 0 -35z"/>
<path d="M5710 1905 l0 -195 85 0 c100 0 118 12 129 83 7 48 0 114 -14 122 -5
3 -2 18 6 33 17 33 18 59 3 101 -15 43 -35 51 -128 51 l-81 0 0 -195z"/>
<path d="M6250 1905 l0 -195 40 0 39 0 3 85 c2 48 7 85 13 85 6 1 15 -37 20
-82 l10 -83 46 -3 46 -3 -15 88 c-11 67 -12 94 -3 118 6 17 11 55 11 84 0 42
-5 57 -25 76 -22 22 -32 25 -105 25 l-80 0 0 -195z"/>
<path d="M6510 1905 l0 -195 84 0 c126 0 130 5 134 166 6 204 -7 224 -143 224
l-75 0 0 -195z"/>
<path d="M6780 1905 l0 -195 90 0 90 0 0 35 c0 35 0 35 -45 35 l-45 0 0 55 0
55 40 0 c39 0 40 1 40 35 0 34 -1 35 -40 35 -39 0 -40 1 -40 35 0 35 0 35 45
35 45 0 45 0 45 35 l0 35 -90 0 -90 0 0 -195z"/>
<path d="M7010 1905 l0 -195 40 0 39 0 3 85 c2 48 7 85 13 85 6 1 15 -37 22
-82 6 -46 12 -84 12 -85 1 -2 22 -3 47 -3 38 0 45 3 40 18 -17 61 -27 171 -17
190 6 11 11 46 11 77 0 46 -4 60 -25 80 -22 22 -32 25 -105 25 l-80 0 0 -195z"/>
</g>
</svg>
